<svg version="1.1" id="Layer_1" xmlns="http://www.w3.org/2000/svg" xmlns:xlink="http://www.w3.org/1999/xlink" x="0px" y="0px"
	 width="100%" viewBox="0 0 225 225" enable-background="new 0 0 225 225" xml:space="preserve">
<path fill="#364F85" opacity="1.000000" stroke="none" 
	d="
M101.000000,1.000001 
	C108.687576,1.000000 116.375153,1.000000 124.717209,1.361637 
	C126.856430,1.858760 128.349609,1.933482 129.824677,2.138564 
	C173.432266,8.201440 210.647903,41.172333 222.018784,83.892059 
	C223.524048,89.547272 224.681473,95.295082 226.000000,101.000000 
	C226.000000,109.020897 226.000000,117.041801 225.637238,125.702759 
	C219.449265,173.341141 187.085541,210.397842 141.182114,222.500076 
	C135.851059,223.905594 130.397018,224.844681 125.000000,226.000000 
	C117.312424,226.000000 109.624847,226.000000 101.297081,225.637405 
	C54.503201,219.875656 16.629082,187.059967 4.796232,142.150070 
	C3.387755,136.804413 2.258617,131.385147 0.999999,126.000000 
	C1.000000,117.979103 1.000000,109.958199 1.357560,101.289413 
	C3.993255,82.202728 9.906867,65.031921 20.799973,49.938690 
	C40.206146,23.049940 65.479958,5.621281 99.411377,2.727833 
	C99.985855,2.678844 100.472420,1.598878 101.000000,1.000001 
M110.880089,127.870842 
	C110.880089,127.870842 110.646095,127.838631 111.121780,127.524414 
	C111.374977,127.245110 111.628181,126.965805 112.195244,126.111755 
	C118.644760,121.438232 124.849983,116.371162 131.599670,112.181183 
	C142.380692,105.488686 154.212143,101.549690 167.062164,102.144478 
	C177.056381,102.607079 186.764221,104.688385 196.163895,110.366623 
	C202.769913,103.089348 209.359894,95.829720 216.011292,88.502457 
	C215.507645,88.240097 214.117203,87.387032 212.631119,86.760963 
	C191.306107,77.777077 169.205643,75.760590 146.727570,80.721619 
	C127.347107,84.998993 112.207542,96.870926 98.933922,110.893303 
	C91.428085,118.822525 83.439125,123.727180 72.287743,122.152618 
	C72.138008,122.131462 71.921410,122.583893 71.670158,122.897484 
	C75.899391,129.014359 81.149017,133.948624 88.539520,137.515503 
	C90.191910,137.959030 91.855232,138.366119 93.493042,138.858185 
	C94.693886,139.218933 95.861237,139.691132 96.542030,140.710022 
	C85.220627,145.391998 70.003075,138.675034 64.191391,126.324211 
	C62.567654,122.873489 61.416611,119.200760 59.800747,115.745850 
	C51.399441,97.782860 32.624821,87.511696 12.448328,90.779831 
	C13.947974,91.593224 14.774877,91.851517 15.350873,92.382149 
	C27.777039,103.829720 38.975746,116.287476 47.458935,131.031219 
	C49.359329,134.334122 51.628281,137.459229 53.997841,140.452209 
	C67.137886,157.049347 82.371399,160.354904 101.171463,150.581284 
	C106.917114,147.594284 112.442513,144.175934 118.013161,140.861618 
	C128.975708,134.339340 140.982681,132.302902 153.095261,135.212875 
	C161.956802,137.341797 170.247208,141.847946 179.317001,145.506180 
	C186.360931,137.297165 194.028702,128.361115 201.845062,119.251892 
	C201.103592,118.703949 200.633224,118.243958 200.073700,117.959068 
	C179.196060,107.329063 157.964432,104.711067 136.540039,116.052567 
	C127.165359,121.015274 118.253693,126.852623 108.856850,131.713928 
	C108.570137,131.140793 108.283424,130.567673 108.191055,129.566833 
	C108.584480,129.336777 108.977898,129.106720 109.941620,128.542068 
	C110.263687,128.240143 110.585747,127.938210 110.880089,127.870842 
M155.317093,140.984802 
	C140.424393,137.010071 126.679276,140.363235 113.581551,147.608688 
	C107.184265,151.147537 100.948128,154.983429 94.496437,158.416901 
	C84.641968,163.661285 74.633080,163.344696 64.876945,158.187866 
	C60.804382,156.035233 57.090710,153.203583 52.114517,149.965271 
	C54.366997,156.109329 55.840775,161.567261 58.294945,166.541504 
	C64.513435,179.145416 74.596840,184.179901 88.333748,181.076431 
	C94.717941,179.634109 100.986534,177.044464 106.844604,174.064804 
	C114.724960,170.056549 122.149689,170.460510 129.755112,174.236603 
	C130.921936,174.815948 132.062302,175.448578 133.280670,176.091248 
	C144.473038,166.890961 155.522568,157.808075 167.651794,147.837662 
	C163.370331,145.351746 159.737518,143.242477 155.317093,140.984802 
z"/>
<path fill="#FEFEFE" opacity="1.000000" stroke="none" 
	d="
M100.531342,1.000001 
	C100.472420,1.598878 99.985855,2.678844 99.411377,2.727833 
	C65.479958,5.621281 40.206146,23.049940 20.799973,49.938690 
	C9.906867,65.031921 3.993255,82.202728 1.357560,100.820755 
	C1.000000,67.739731 1.000000,34.479462 1.000000,1.000000 
	C34.020573,1.000000 67.041626,1.000000 100.531342,1.000001 
z"/>
<path fill="#FEFEFE" opacity="1.000000" stroke="none" 
	d="
M226.000000,100.531342 
	C224.681473,95.295082 223.524048,89.547272 222.018784,83.892059 
	C210.647903,41.172333 173.432266,8.201440 129.824677,2.138564 
	C128.349609,1.933482 126.856430,1.858760 125.185852,1.361637 
	C158.593231,1.000000 192.186478,1.000000 226.000000,1.000000 
	C226.000000,34.020569 226.000000,67.041626 226.000000,100.531342 
z"/>
<path fill="#FEFEFE" opacity="1.000000" stroke="none" 
	d="
M125.468658,226.000000 
	C130.397018,224.844681 135.851059,223.905594 141.182114,222.500076 
	C187.085541,210.397842 219.449265,173.341141 225.637238,126.171410 
	C226.000000,159.260635 226.000000,192.521255 226.000000,226.000000 
	C192.646088,226.000000 159.291702,226.000000 125.468658,226.000000 
z"/>
<path fill="#FEFEFE" opacity="1.000000" stroke="none" 
	d="
M0.999999,126.468658 
	C2.258617,131.385147 3.387755,136.804413 4.796232,142.150070 
	C16.629082,187.059967 54.503201,219.875656 100.828445,225.637405 
	C67.739731,226.000000 34.479462,226.000000 1.000000,226.000000 
	C1.000000,192.979431 1.000000,159.958374 0.999999,126.468658 
z"/>
<path fill="#FCFDFD" opacity="1.000000" stroke="none" 
	d="
M109.131783,132.292801 
	C118.253693,126.852623 127.165359,121.015274 136.540039,116.052567 
	C157.964432,104.711067 179.196060,107.329063 200.073700,117.959068 
	C200.633224,118.243958 201.103592,118.703949 201.845062,119.251892 
	C194.028702,128.361115 186.360931,137.297165 179.317001,145.506180 
	C170.247208,141.847946 161.956802,137.341797 153.095261,135.212875 
	C140.982681,132.302902 128.975708,134.339340 118.013161,140.861618 
	C112.442513,144.175934 106.917114,147.594284 101.171463,150.581284 
	C82.371399,160.354904 67.137886,157.049347 53.997841,140.452209 
	C51.628281,137.459229 49.359329,134.334122 47.458935,131.031219 
	C38.975746,116.287476 27.777039,103.829720 15.350873,92.382149 
	C14.774877,91.851517 13.947974,91.593224 12.448328,90.779831 
	C32.624821,87.511696 51.399441,97.782860 59.800747,115.745850 
	C61.416611,119.200760 62.567654,122.873489 64.191391,126.324211 
	C70.003075,138.675034 85.220627,145.391998 97.140961,140.359497 
	C101.537193,137.436935 105.334488,134.864868 109.131783,132.292801 
z"/>
<path fill="#FDFDFD" opacity="1.000000" stroke="none" 
	d="
M109.371315,128.876678 
	C108.977898,129.106720 108.584480,129.336777 107.768440,129.884766 
	C101.633865,134.562714 95.887817,138.826401 88.003487,137.048843 
	C81.149017,133.948624 75.899391,129.014359 71.670158,122.897484 
	C71.921410,122.583893 72.138008,122.131462 72.287743,122.152618 
	C83.439125,123.727180 91.428085,118.822525 98.933922,110.893303 
	C112.207542,96.870926 127.347107,84.998993 146.727570,80.721619 
	C169.205643,75.760590 191.306107,77.777077 212.631119,86.760963 
	C214.117203,87.387032 215.507645,88.240097 216.011292,88.502457 
	C209.359894,95.829720 202.769913,103.089348 196.163895,110.366623 
	C186.764221,104.688385 177.056381,102.607079 167.062164,102.144478 
	C154.212143,101.549690 142.380692,105.488686 131.599670,112.181183 
	C124.849983,116.371162 118.644760,121.438232 111.767784,126.514175 
	C111.108910,127.223946 110.877495,127.531281 110.646088,127.838623 
	C110.646095,127.838631 110.880089,127.870842 110.569939,127.871979 
	C109.963631,128.207642 109.667473,128.542160 109.371315,128.876678 
z"/>
<path fill="#FDFDFD" opacity="1.000000" stroke="none" 
	d="
M155.710907,141.058990 
	C159.737518,143.242477 163.370331,145.351746 167.651794,147.837662 
	C155.522568,157.808075 144.473038,166.890961 133.280670,176.091248 
	C132.062302,175.448578 130.921936,174.815948 129.755112,174.236603 
	C122.149689,170.460510 114.724960,170.056549 106.844604,174.064804 
	C100.986534,177.044464 94.717941,179.634109 88.333748,181.076431 
	C74.596840,184.179901 64.513435,179.145416 58.294945,166.541504 
	C55.840775,161.567261 54.366997,156.109329 52.114517,149.965271 
	C57.090710,153.203583 60.804382,156.035233 64.876945,158.187866 
	C74.633080,163.344696 84.641968,163.661285 94.496437,158.416901 
	C100.948128,154.983429 107.184265,151.147537 113.581551,147.608688 
	C126.679276,140.363235 140.424393,137.010071 155.710907,141.058990 
z"/>
<path fill="#365187" opacity="1.000000" stroke="none" 
	d="
M88.271500,137.282166 
	C95.887817,138.826401 101.633865,134.562714 107.671265,130.098618 
	C108.283424,130.567673 108.570137,131.140793 108.994316,132.003357 
	C105.334488,134.864868 101.537193,137.436935 97.391708,140.061325 
	C95.861237,139.691132 94.693886,139.218933 93.493042,138.858185 
	C91.855232,138.366119 90.191910,137.959030 88.271500,137.282166 
z"/>
<path fill="#365187" opacity="1.000000" stroke="none" 
	d="
M110.883926,127.681519 
	C110.877495,127.531281 111.108910,127.223946 111.610855,126.801552 
	C111.628181,126.965805 111.374977,127.245110 110.883926,127.681519 
z"/>
<path fill="#365187" opacity="1.000000" stroke="none" 
	d="
M109.656464,128.709381 
	C109.667473,128.542160 109.963631,128.207642 110.583801,127.754700 
	C110.585747,127.938210 110.263687,128.240143 109.656464,128.709381 
z"/>
</svg>